# xmcd CD database file
#
# Track frame offsets:
#	150
#	19715
#	43282
#	59890
#	78602
#	99000
#	116855
#	128030
#	143597
#	159032
#	179192
#
# Disc length: 2680 seconds
#
# Revision: 3
# Processed by: cddbd v1.5.2PL0 Copyright (c) Steve Scherf et al.
# Submitted via: CDex 1.70beta2
#
DISCID=960a760b
DTITLE=Rosanne Cash - The Wheel
DYEAR=1993
DGENRE=
TTITLE0=The Wheel
TTITLE1=Seventh Avenue
TTITLE2=Change Partners
TTITLE3=Sleeping In Paris
TTITLE4=You Won't Let Me In
TTITLE5=From The Ashes
TTITLE6=The Truth About You
TTITLE7=Tears Falling Down
TTITLE8=Roses In The Fire
TTITLE9=Fire Of The Newly Alive
TTITLE10=If There's A God On My Side
EXTD=YEAR: 1993
EXTT0=
EXTT1=
EXTT2=
EXTT3=
EXTT4=
EXTT5=
EXTT6=
EXTT7=
EXTT8=
EXTT9=
EXTT10=
PLAYORDER=
